<svg width="18" height="15" viewBox="0 0 18 15" fill="none" xmlns="http://www.w3.org/2000/svg">
<path fill-rule="evenodd" clip-rule="evenodd" d="M5.00194 0.55291C7.69826 0.34969 10.4065 0.363024 13.1007 0.592783L14.7245 0.731255C15.951 0.835851 16.9464 1.76667 17.1329 2.98342L17.2353 3.65174C17.5829 5.91965 17.5505 8.22962 17.1392 10.4869C16.9362 11.6006 15.9661 12.41 14.834 12.41H5.85756C5.65104 12.41 5.44774 12.4612 5.26583 12.5589L1.35504 14.6606C1.12261 14.7856 0.841631 14.7791 0.615148 14.6437C0.388666 14.5083 0.25 14.2639 0.25 14V5.4827C0.25 2.9041 2.23741 0.761272 4.80871 0.567474L5.00194 0.55291ZM5 5.5C4.30964 5.5 3.75 6.05964 3.75 6.75C3.75 7.44036 4.30964 8 5 8C5.69036 8 6.25 7.44036 6.25 6.75C6.25 6.05964 5.69036 5.5 5 5.5ZM9 5.5C8.30964 5.5 7.75 6.05964 7.75 6.75C7.75 7.44036 8.30964 8 9 8C9.69036 8 10.25 7.44036 10.25 6.75C10.25 6.05964 9.69036 5.5 9 5.5ZM11.75 6.75C11.75 6.05964 12.3096 5.5 13 5.5C13.6904 5.5 14.25 6.05964 14.25 6.75C14.25 7.44036 13.6904 8 13 8C12.3096 8 11.75 7.44036 11.75 6.75Z" fill="white"/>
</svg>
