<svg width="22" height="19" viewBox="0 0 22 19" fill="none" xmlns="http://www.w3.org/2000/svg">
<path fill-rule="evenodd" clip-rule="evenodd" d="M11 9.64948C10.3096 9.64948 9.75 10.2091 9.75 10.8995C9.75 11.5898 10.3096 12.1495 11 12.1495C11.6904 12.1495 12.25 11.5898 12.25 10.8995C12.25 10.2091 11.6904 9.64948 11 9.64948ZM8.25 10.8995C8.25 9.38069 9.48122 8.14948 11 8.14948C12.5188 8.14948 13.75 9.38069 13.75 10.8995C13.75 12.4183 12.5188 13.6495 11 13.6495C9.48122 13.6495 8.25 12.4183 8.25 10.8995Z" fill="white"/>
<path fill-rule="evenodd" clip-rule="evenodd" d="M11 5.64948C9.96165 5.64948 8.94662 5.95738 8.08326 6.53426C7.2199 7.11114 6.547 7.93108 6.14964 8.89039C5.75228 9.8497 5.64831 10.9053 5.85088 11.9237C6.05345 12.9421 6.55347 13.8776 7.28769 14.6118C7.58059 14.9047 7.58059 15.3796 7.28769 15.6724C6.9948 15.9653 6.51993 15.9653 6.22703 15.6724C5.28303 14.7284 4.64015 13.5257 4.3797 12.2163C4.11925 10.907 4.25292 9.54976 4.76382 8.31636C5.27471 7.08296 6.13987 6.02876 7.2499 5.28706C8.35994 4.54536 9.66498 4.14948 11 4.14948C12.335 4.14948 13.6401 4.54536 14.7501 5.28706C15.8601 6.02875 16.7253 7.08296 17.2362 8.31636C17.7471 9.54976 17.8808 10.907 17.6203 12.2163C17.3599 13.5257 16.717 14.7284 15.773 15.6724C15.4801 15.9653 15.0052 15.9653 14.7123 15.6724C14.4194 15.3796 14.4194 14.9047 14.7123 14.6118C15.4465 13.8776 15.9466 12.9421 16.1491 11.9237C16.3517 10.9053 16.2477 9.8497 15.8504 8.89039C15.453 7.93108 14.7801 7.11114 13.9167 6.53426C13.0534 5.95738 12.0384 5.64948 11 5.64948Z" fill="white"/>
<path fill-rule="evenodd" clip-rule="evenodd" d="M11.0001 1.75C9.19048 1.75 7.42152 2.28661 5.9169 3.29197C4.41227 4.29733 3.23956 5.72628 2.54705 7.39813C1.85455 9.06998 1.67336 10.9096 2.0264 12.6845C2.37943 14.4593 3.25083 16.0896 4.53041 17.3692C4.82331 17.662 4.82331 18.1369 4.53041 18.4298C4.23752 18.7227 3.76265 18.7227 3.46975 18.4298C1.9804 16.9405 0.966129 15.0429 0.555217 12.9771C0.144306 10.9113 0.355199 8.77005 1.16123 6.82411C1.96727 4.87817 3.33224 3.21494 5.08354 2.04476C6.83484 0.874582 8.89381 0.25 11.0001 0.25C13.1063 0.25 15.1653 0.874582 16.9166 2.04476C18.6679 3.21494 20.0329 4.87817 20.8389 6.82411C21.645 8.77005 21.8559 10.9113 21.4449 12.9771C21.034 15.0429 20.0198 16.9405 18.5304 18.4298C18.2375 18.7227 17.7626 18.7227 17.4697 18.4298C17.1768 18.1369 17.1768 17.662 17.4697 17.3692C18.7493 16.0896 19.6207 14.4593 19.9738 12.6845C20.3268 10.9096 20.1456 9.06998 19.4531 7.39813C18.7606 5.72628 17.5879 4.29733 16.0833 3.29197C14.5786 2.28661 12.8097 1.75 11.0001 1.75Z" fill="white"/>
</svg>
