<svg width="20" height="20" viewBox="0 0 20 20" fill="none" xmlns="http://www.w3.org/2000/svg">
<path fill-rule="evenodd" clip-rule="evenodd" d="M6.92917 2.47028C5.65795 2.3282 4.34205 2.3282 3.07083 2.47028C2.76194 2.5048 2.51834 2.74939 2.4836 3.04645C2.33179 4.34439 2.33179 5.6556 2.4836 6.95355C2.51834 7.2506 2.76194 7.49519 3.07083 7.52972C4.34205 7.67179 5.65795 7.67179 6.92917 7.52972C7.23806 7.49519 7.48166 7.2506 7.5164 6.95355C7.66821 5.6556 7.66821 4.34439 7.5164 3.04645C7.48166 2.74939 7.23806 2.5048 6.92917 2.47028ZM2.90422 0.979563C4.28617 0.825111 5.71384 0.825111 7.09578 0.979563C8.08662 1.0903 8.88906 1.87029 9.00625 2.8722C9.17159 4.28591 9.17159 5.71408 9.00625 7.1278C8.88906 8.12971 8.08662 8.90969 7.09578 9.02043C5.71383 9.17489 4.28617 9.17489 2.90422 9.02043C1.91338 8.90969 1.11094 8.12971 0.993753 7.1278C0.828407 5.71408 0.828407 4.28591 0.993753 2.8722C1.11094 1.87029 1.91338 1.0903 2.90422 0.979563Z" fill="white"/>
<path fill-rule="evenodd" clip-rule="evenodd" d="M6.92917 12.4703C5.65795 12.3282 4.34205 12.3282 3.07083 12.4703C2.76194 12.5048 2.51834 12.7494 2.4836 13.0465C2.33179 14.3444 2.33179 15.6556 2.4836 16.9535C2.51834 17.2506 2.76194 17.4952 3.07083 17.5297C4.34205 17.6718 5.65795 17.6718 6.92917 17.5297C7.23806 17.4952 7.48166 17.2506 7.5164 16.9535C7.66821 15.6556 7.66821 14.3444 7.5164 13.0465C7.48166 12.7494 7.23806 12.5048 6.92917 12.4703ZM2.90422 10.9796C4.28617 10.8251 5.71384 10.8251 7.09578 10.9796C8.08662 11.0903 8.88906 11.8703 9.00625 12.8722C9.17159 14.2859 9.17159 15.7141 9.00625 17.1278C8.88906 18.1297 8.08662 18.9097 7.09578 19.0204C5.71383 19.1749 4.28617 19.1749 2.90422 19.0204C1.91338 18.9097 1.11094 18.1297 0.993753 17.1278C0.828407 15.7141 0.828407 14.2859 0.993753 12.8722C1.11094 11.8703 1.91338 11.0903 2.90422 10.9796Z" fill="white"/>
<path fill-rule="evenodd" clip-rule="evenodd" d="M16.9292 2.47028C15.658 2.3282 14.342 2.3282 13.0708 2.47028C12.7619 2.5048 12.5183 2.74939 12.4836 3.04645C12.3318 4.34439 12.3318 5.6556 12.4836 6.95355C12.5183 7.2506 12.7619 7.49519 13.0708 7.52972C14.342 7.67179 15.658 7.67179 16.9292 7.52972C17.2381 7.49519 17.4817 7.2506 17.5164 6.95355C17.6682 5.6556 17.6682 4.34439 17.5164 3.04645C17.4817 2.74939 17.2381 2.5048 16.9292 2.47028ZM12.9042 0.979563C14.2862 0.825111 15.7138 0.825111 17.0958 0.979563C18.0866 1.0903 18.8891 1.87029 19.0062 2.8722C19.1716 4.28591 19.1716 5.71408 19.0062 7.1278C18.8891 8.12971 18.0866 8.90969 17.0958 9.02043C15.7138 9.17489 14.2862 9.17489 12.9042 9.02043C11.9134 8.90969 11.1109 8.12971 10.9938 7.1278C10.8284 5.71408 10.8284 4.28591 10.9938 2.8722C11.1109 1.87029 11.9134 1.0903 12.9042 0.979563Z" fill="white"/>
<path fill-rule="evenodd" clip-rule="evenodd" d="M16.9292 12.4703C15.658 12.3282 14.342 12.3282 13.0708 12.4703C12.7619 12.5048 12.5183 12.7494 12.4836 13.0465C12.3318 14.3444 12.3318 15.6556 12.4836 16.9535C12.5183 17.2506 12.7619 17.4952 13.0708 17.5297C14.342 17.6718 15.658 17.6718 16.9292 17.5297C17.2381 17.4952 17.4817 17.2506 17.5164 16.9535C17.6682 15.6556 17.6682 14.3444 17.5164 13.0465C17.4817 12.7494 17.2381 12.5048 16.9292 12.4703ZM12.9042 10.9796C14.2862 10.8251 15.7138 10.8251 17.0958 10.9796C18.0866 11.0903 18.8891 11.8703 19.0062 12.8722C19.1716 14.2859 19.1716 15.7141 19.0062 17.1278C18.8891 18.1297 18.0866 18.9097 17.0958 19.0204C15.7138 19.1749 14.2862 19.1749 12.9042 19.0204C11.9134 18.9097 11.1109 18.1297 10.9938 17.1278C10.8284 15.7141 10.8284 14.2859 10.9938 12.8722C11.1109 11.8703 11.9134 11.0903 12.9042 10.9796Z" fill="white"/>
</svg>
