<svg width="134" height="36" viewBox="0 0 134 36" fill="none" xmlns="http://www.w3.org/2000/svg">
<path d="M24.636 24.147C23.558 24.147 22.592 23.972 21.738 23.622C20.884 23.272 20.198 22.754 19.68 22.068C19.176 21.382 18.91 20.556 18.882 19.59H22.704C22.76 20.136 22.949 20.556 23.271 20.85C23.593 21.13 24.013 21.27 24.531 21.27C25.063 21.27 25.483 21.151 25.791 20.913C26.099 20.661 26.253 20.318 26.253 19.884C26.253 19.52 26.127 19.219 25.875 18.981C25.637 18.743 25.336 18.547 24.972 18.393C24.622 18.239 24.118 18.064 23.46 17.868C22.508 17.574 21.731 17.28 21.129 16.986C20.527 16.692 20.009 16.258 19.575 15.684C19.141 15.11 18.924 14.361 18.924 13.437C18.924 12.065 19.421 10.994 20.415 10.224C21.409 9.44 22.704 9.048 24.3 9.048C25.924 9.048 27.233 9.44 28.227 10.224C29.221 10.994 29.753 12.072 29.823 13.458H25.938C25.91 12.982 25.735 12.611 25.413 12.345C25.091 12.065 24.678 11.925 24.174 11.925C23.74 11.925 23.39 12.044 23.124 12.282C22.858 12.506 22.725 12.835 22.725 13.269C22.725 13.745 22.949 14.116 23.397 14.382C23.845 14.648 24.545 14.935 25.497 15.243C26.449 15.565 27.219 15.873 27.807 16.167C28.409 16.461 28.927 16.888 29.361 17.448C29.795 18.008 30.012 18.729 30.012 19.611C30.012 20.451 29.795 21.214 29.361 21.9C28.941 22.586 28.325 23.132 27.513 23.538C26.701 23.944 25.742 24.147 24.636 24.147ZM35.8129 9.258V24H32.2219V9.258H35.8129ZM49.6503 14.004C49.6503 14.858 49.4543 15.642 49.0623 16.356C48.6703 17.056 48.0683 17.623 47.2563 18.057C46.4443 18.491 45.4363 18.708 44.2323 18.708H42.0063V24H38.4153V9.258H44.2323C45.4083 9.258 46.4023 9.461 47.2143 9.867C48.0263 10.273 48.6353 10.833 49.0413 11.547C49.4473 12.261 49.6503 13.08 49.6503 14.004ZM43.9593 15.852C44.6453 15.852 45.1563 15.691 45.4923 15.369C45.8283 15.047 45.9963 14.592 45.9963 14.004C45.9963 13.416 45.8283 12.961 45.4923 12.639C45.1563 12.317 44.6453 12.156 43.9593 12.156H42.0063V15.852H43.9593ZM55.1108 12.135V15.117H59.9198V17.889H55.1108V21.123H60.5498V24H51.5198V9.258H60.5498V12.135H55.1108ZM76.0691 24H72.4781L66.4721 14.907V24H62.8811V9.258H66.4721L72.4781 18.393V9.258H76.0691V24ZM87.9121 9.258V19.296C87.9121 20.85 87.4711 22.047 86.5891 22.887C85.7211 23.727 84.5451 24.147 83.0611 24.147C81.5071 24.147 80.2611 23.706 79.3231 22.824C78.3851 21.942 77.9161 20.689 77.9161 19.065H81.4861C81.4861 19.681 81.6121 20.15 81.8641 20.472C82.1161 20.78 82.4801 20.934 82.9561 20.934C83.3901 20.934 83.7261 20.794 83.9641 20.514C84.2021 20.234 84.3211 19.828 84.3211 19.296V9.258H87.9121ZM94.4037 9.258V24H90.8127V9.258H94.4037ZM100.597 21.228H105.301V24H97.0061V9.258H100.597V21.228ZM116.191 21.396H110.689L109.807 24H106.048L111.382 9.258H115.54L120.874 24H117.073L116.191 21.396ZM115.267 18.624L113.44 13.227L111.634 18.624H115.267ZM133.102 9.258V12.135H129.196V24H125.605V12.135H121.699V9.258H133.102Z" fill="white"/>
<mask id="mask0_1_52" style="mask-type:alpha" maskUnits="userSpaceOnUse" x="0" y="0" width="43" height="36">
<path d="M37.9444 8.77614H28.4444C26.9444 8.77615 23.6445 9.77615 22.4445 9.77614C20.9445 9.77613 14.4445 17.2762 14.9445 18.2762C15.3445 19.0762 24.4445 23.9428 28.9445 25.7762H35.9445C38.2778 26.2762 42.7445 26.9762 41.9445 29.7762C40.9445 33.2762 32.4445 35.2762 24.9445 35.2762C17.4445 35.2762 9.44444 33.7762 2.94444 28.7762C-3.55556 23.7762 2.44444 21.7762 4.44444 15.7762C6.44444 9.77615 5.94444 8.77615 6.94444 5.77615C7.94444 2.77615 14.4444 1.27614 16.9444 0.276142C19.4444 -0.723858 31.4444 1.27614 31.9444 1.77614C32.3444 2.17614 36.1111 6.27614 37.9444 8.77614Z" fill="#C4C4C4"/>
</mask>
<g mask="url(#mask0_1_52)">
<circle cx="22.4445" cy="16.7762" r="13" stroke="white" stroke-width="2"/>
</g>
</svg>
